<svg width="512" height="512" viewBox="0 0 512 512" fill="none" xmlns="http://www.w3.org/2000/svg">
<g filter="url(#filter0_d_2_3)">
<rect x="53" y="53" width="406" height="406" rx="58" fill="white"/>
<path d="M157.461 163.497C157.461 173.4 162.745 182.55 171.321 187.501C179.896 192.453 190.462 192.453 199.038 187.501C207.613 182.55 212.897 173.4 212.897 163.497V147.164H300.77V163.497C300.77 173.4 306.054 182.55 314.629 187.501C323.205 192.453 333.77 192.453 342.346 187.501C350.922 182.55 356.206 173.4 356.206 163.497V147.164H365.406C372.999 147.173 380.278 150.195 385.647 155.563C391.017 160.933 394.036 168.212 394.045 175.805V357.941C394.036 365.534 391.017 372.815 385.647 378.183C380.278 383.553 372.999 386.574 365.406 386.583H148.263C140.67 386.574 133.39 383.554 128.02 378.184C122.65 372.815 119.631 365.535 119.622 357.941V175.805C119.631 168.211 122.65 160.932 128.02 155.562C133.39 150.194 140.669 147.173 148.263 147.164H157.461V163.497ZM137.914 357.941C137.916 360.684 139.009 363.314 140.948 365.254C142.888 367.193 145.518 368.285 148.261 368.288H365.403C368.145 368.285 370.776 367.194 372.715 365.254C374.655 363.314 375.745 360.685 375.748 357.941L375.747 221.928H137.914V357.941ZM185.174 112.138C189.294 112.139 193.246 113.777 196.157 116.692C199.068 119.608 200.701 123.562 200.695 127.682V163.497C200.695 167.613 199.06 171.56 196.149 174.471C193.239 177.382 189.29 179.017 185.174 179.017C181.058 179.017 177.11 177.381 174.2 174.471C171.288 171.56 169.652 167.613 169.652 163.497V127.682C169.647 123.562 171.28 119.608 174.191 116.692C177.102 113.777 181.054 112.138 185.174 112.138ZM328.484 112.138C332.604 112.139 336.555 113.777 339.466 116.692C342.377 119.608 344.01 123.562 344.004 127.682V163.497C344.004 167.613 342.369 171.56 339.458 174.471C336.548 177.382 332.6 179.017 328.484 179.017C324.368 179.017 320.419 177.381 317.509 174.471C314.598 171.56 312.961 167.613 312.961 163.497V127.682C312.956 123.562 314.589 119.608 317.5 116.692C320.412 113.777 324.364 112.138 328.484 112.138Z" fill="url(#paint0_linear_2_3)"/>
</g>
<defs>
<filter id="filter0_d_2_3" x="24.8286" y="34.7714" width="462.343" height="462.343" filterUnits="userSpaceOnUse" color-interpolation-filters="sRGB">
<feFlood flood-opacity="0" result="BackgroundImageFix"/>
<feColorMatrix in="SourceAlpha" type="matrix" values="0 0 0 0 0 0 0 0 0 0 0 0 0 0 0 0 0 0 127 0" result="hardAlpha"/>
<feMorphology radius="8.28571" operator="dilate" in="SourceAlpha" result="effect1_dropShadow_2_3"/>
<feOffset dy="9.94286"/>
<feGaussianBlur stdDeviation="9.94286"/>
<feComposite in2="hardAlpha" operator="out"/>
<feColorMatrix type="matrix" values="0 0 0 0 0 0 0 0 0 0 0 0 0 0 0 0 0 0 0.1 0"/>
<feBlend mode="normal" in2="BackgroundImageFix" result="effect1_dropShadow_2_3"/>
<feBlend mode="normal" in="SourceGraphic" in2="effect1_dropShadow_2_3" result="shape"/>
</filter>
<linearGradient id="paint0_linear_2_3" x1="256.833" y1="112.138" x2="256.833" y2="386.583" gradientUnits="userSpaceOnUse">
<stop stop-color="#4DC4FF"/>
<stop offset="1" stop-color="#314BF8"/>
</linearGradient>
</defs>
</svg>
